<svg width="22" height="23" viewBox="0 0 22 23" fill="none" xmlns="http://www.w3.org/2000/svg">
<g clip-path="url(#clip0)">
<path d="M12.4853 22.0001H8.95531C8.36569 22.0001 7.88606 21.5204 7.88606 20.9308V12.9687H5.82658C5.23696 12.9687 4.75732 12.4889 4.75732 11.8995V8.48772C4.75732 7.89809 5.23696 7.41846 5.82658 7.41846H7.88606V5.70997C7.88606 4.01594 8.41799 2.57468 9.42419 1.54225C10.4349 0.505114 11.8474 -0.0429688 13.509 -0.0429688L16.2011 -0.0385962C16.7898 -0.0375871 17.2685 0.442048 17.2685 1.03066V4.19841C17.2685 4.78803 16.7891 5.26767 16.1996 5.26767L14.387 5.26834C13.8342 5.26834 13.6935 5.37917 13.6634 5.41314C13.6138 5.46948 13.5547 5.62874 13.5547 6.06852V7.41829H16.0634C16.2523 7.41829 16.4352 7.46487 16.5925 7.55266C16.9317 7.7422 17.1426 8.10058 17.1426 8.48788L17.1412 11.8997C17.1412 12.4889 16.6616 12.9686 16.072 12.9686H13.5547V20.9308C13.5547 21.5204 13.0749 22.0001 12.4853 22.0001ZM9.17831 20.7078H12.2623V12.3902C12.2623 11.9965 12.5827 11.6763 12.9762 11.6763H15.849L15.8502 8.71072H12.976C12.5825 8.71072 12.2623 8.39051 12.2623 7.99681V6.06852C12.2623 5.56365 12.3136 4.9895 12.6947 4.55797C13.1552 4.03629 13.8808 3.97608 14.3867 3.97608L15.9763 3.97541V1.25333L13.508 1.24929C10.8377 1.24929 9.17831 2.95862 9.17831 5.70997V7.99681C9.17831 8.39034 8.85811 8.71072 8.46458 8.71072H6.04958V11.6763H8.46458C8.85811 11.6763 9.17831 11.9965 9.17831 12.3902V20.7078ZM16.1986 1.25366H16.1988H16.1986Z" fill="#D6A354"/>
</g>
<defs>
<clipPath id="clip0">
<rect width="22" height="22.0431" fill="white"/>
</clipPath>
</defs>
</svg>
