<svg width="20" height="20" viewBox="0 0 20 20" fill="none" xmlns="http://www.w3.org/2000/svg">
<path d="M17.0696 2.93003C13.1626 -0.977015 6.83825 -0.977639 2.93065 2.93003C-0.976429 6.83707 -0.977015 13.1614 2.93065 17.069C6.83762 20.976 13.162 20.9766 17.0696 17.069C20.9767 13.1619 20.9772 6.83766 17.0696 2.93003ZM16.6517 15.6438C16.1846 15.2261 15.6849 14.8565 15.1583 14.5379C15.5064 13.3354 15.7126 12.0121 15.7614 10.6366H18.7007C18.5678 12.4907 17.8554 14.2299 16.6517 15.6438ZM1.29949 10.6366H4.23884C4.28759 12.0121 4.49383 13.3354 4.84195 14.5379C4.31527 14.8565 3.8156 15.2261 3.34848 15.6438C2.14477 14.2299 1.43242 12.4907 1.29949 10.6366ZM3.34852 4.35519C3.81564 4.7729 4.31531 5.14256 4.84198 5.46113C4.49387 6.66362 4.28763 7.98688 4.23888 9.36239H1.29949C1.43242 7.50836 2.14477 5.76912 3.34852 4.35519ZM9.36302 5.59281C8.32395 5.5185 7.32207 5.26258 6.39326 4.84038C6.93344 3.44937 7.92927 1.78101 9.36302 1.36755V5.59281ZM9.36302 6.86943V9.36243H5.51362C5.55773 8.19885 5.72259 7.08152 5.99678 6.05919C7.05229 6.52061 8.18746 6.79617 9.36302 6.86943ZM9.36302 10.6366V13.1296C8.18746 13.2029 7.05229 13.4784 5.99678 13.9399C5.72259 12.9175 5.55773 11.8002 5.51362 10.6366H9.36302ZM9.36302 14.4062V18.6315C7.92935 18.218 6.93352 16.5498 6.39326 15.1587C7.32207 14.7365 8.32395 14.4806 9.36302 14.4062ZM10.6372 14.4062C11.6763 14.4806 12.6782 14.7365 13.607 15.1587C13.0668 16.5497 12.071 18.218 10.6372 18.6315V14.4062ZM10.6372 13.1296V10.6366H14.4866C14.4425 11.8002 14.2776 12.9175 14.0035 13.9399C12.9479 13.4784 11.8128 13.2029 10.6372 13.1296ZM10.6372 9.36243V6.86943C11.8128 6.79617 12.9479 6.52061 14.0035 6.05919C14.2776 7.08152 14.4425 8.19885 14.4866 9.36243H10.6372ZM10.6372 5.59281V1.36759C12.071 1.78104 13.0668 3.44941 13.607 4.84042C12.6782 5.26258 11.6763 5.5185 10.6372 5.59281ZM13.4989 2.00368C14.3145 2.36081 15.0753 2.84506 15.7574 3.4459C15.4328 3.73215 15.0902 3.9917 14.7325 4.22382C14.4148 3.43727 14.009 2.67289 13.4989 2.00368ZM5.26773 4.22382C4.91002 3.9917 4.56748 3.73215 4.24279 3.4459C4.92485 2.84506 5.68571 2.36081 6.50126 2.00368C5.9912 2.67297 5.5854 3.43735 5.26773 4.22382ZM5.26777 15.7752C5.5854 16.5617 5.99128 17.3262 6.50129 17.9954C5.68575 17.6383 4.92489 17.154 4.24283 16.5532C4.56748 16.2669 4.91005 16.0074 5.26777 15.7752ZM14.7325 15.7752C15.0902 16.0074 15.4328 16.2669 15.7574 16.5531C15.0753 17.154 14.3145 17.6382 13.4989 17.9953C14.009 17.3262 14.4148 16.5618 14.7325 15.7752ZM15.7614 9.36243C15.7126 7.98692 15.5064 6.66362 15.1583 5.46117C15.685 5.1426 16.1846 4.77294 16.6518 4.35523C17.8555 5.76912 18.5678 7.50836 18.7008 9.36243H15.7614Z" fill="#D6A354"/>
</svg>
