<svg width="20" height="20" viewBox="0 0 20 20" fill="none" xmlns="http://www.w3.org/2000/svg">
<path d="M15.8063 12.3894C15.3968 11.9631 14.903 11.7352 14.3795 11.7352C13.8603 11.7352 13.3622 11.9589 12.9359 12.3852L11.602 13.7149C11.4923 13.6558 11.3825 13.6009 11.277 13.546C11.125 13.47 10.9815 13.3983 10.8591 13.3223C9.60966 12.5287 8.47417 11.4945 7.38512 10.1564C6.85747 9.48951 6.5029 8.92809 6.24541 8.35824C6.59154 8.04166 6.91235 7.71241 7.22471 7.39582C7.34291 7.27763 7.4611 7.15522 7.57929 7.03703C8.46573 6.15059 8.46573 5.00244 7.57929 4.116L6.42692 2.96363C6.29606 2.83277 6.16099 2.6977 6.03435 2.56262C5.78108 2.30091 5.51515 2.03076 5.24078 1.77749C4.83133 1.37226 4.34168 1.15698 3.8267 1.15698C3.31172 1.15698 2.81362 1.37226 2.39151 1.77749C2.38729 1.78171 2.38729 1.78171 2.38307 1.78593L0.947882 3.23378C0.407577 3.77409 0.0994339 4.43258 0.0318957 5.19661C-0.0694116 6.42918 0.293606 7.57733 0.572201 8.32869C1.25603 10.1733 2.27754 11.8829 3.80137 13.7149C5.65023 15.9225 7.87477 17.6658 10.4159 18.8942C11.3868 19.3543 12.6826 19.8988 14.1305 19.9917C14.2191 19.9959 14.312 20.0001 14.3964 20.0001C15.3715 20.0001 16.1904 19.6498 16.832 18.9533C16.8362 18.9449 16.8447 18.9406 16.8489 18.9322C17.0684 18.6663 17.3217 18.4257 17.5876 18.1682C17.7691 17.9951 17.9548 17.8136 18.1364 17.6236C18.5542 17.1889 18.7737 16.6823 18.7737 16.1631C18.7737 15.6397 18.55 15.1374 18.1237 14.7153L15.8063 12.3894ZM17.3175 16.8343C17.3132 16.8343 17.3132 16.8385 17.3175 16.8343C17.1528 17.0116 16.984 17.172 16.8025 17.3493C16.5281 17.611 16.2495 17.8853 15.9878 18.1935C15.5615 18.6494 15.0591 18.8647 14.4006 18.8647C14.3373 18.8647 14.2698 18.8647 14.2065 18.8604C12.9528 18.7802 11.7878 18.2906 10.914 17.8727C8.52482 16.7161 6.42692 15.0741 4.68359 12.993C3.24418 11.2582 2.28176 9.65413 1.64437 7.93191C1.2518 6.88084 1.10829 6.06194 1.1716 5.28948C1.21381 4.7956 1.40377 4.38615 1.75412 4.0358L3.19353 2.59639C3.40036 2.40222 3.61986 2.29669 3.83514 2.29669C4.10107 2.29669 4.31635 2.45709 4.45143 2.59217C4.45565 2.59639 4.45987 2.60061 4.46409 2.60483C4.72158 2.84544 4.9664 3.09448 5.22389 3.36042C5.35475 3.49549 5.48983 3.63057 5.6249 3.76987L6.77727 4.92224C7.22471 5.36968 7.22471 5.78335 6.77727 6.23079C6.65486 6.3532 6.53667 6.47561 6.41425 6.59381C6.05968 6.95682 5.72199 7.29452 5.35475 7.62376C5.34631 7.63221 5.33786 7.63643 5.33364 7.64487C4.97063 8.00789 5.03816 8.36246 5.11414 8.60307C5.11837 8.61573 5.12259 8.62839 5.12681 8.64106C5.42651 9.36709 5.84862 10.0509 6.49023 10.8656L6.49446 10.8698C7.65949 12.305 8.88784 13.4236 10.2428 14.2805C10.4159 14.3902 10.5932 14.4789 10.762 14.5633C10.914 14.6393 11.0575 14.7111 11.1799 14.787C11.1968 14.7955 11.2137 14.8081 11.2306 14.8166C11.3741 14.8883 11.5092 14.9221 11.6485 14.9221C11.9988 14.9221 12.2183 14.7026 12.2901 14.6309L13.7337 13.1872C13.8772 13.0437 14.1052 12.8706 14.3711 12.8706C14.6328 12.8706 14.8481 13.0353 14.9789 13.1788C14.9832 13.183 14.9832 13.183 14.9874 13.1872L17.3132 15.5131C17.748 15.9436 17.748 16.3868 17.3175 16.8343Z" fill="#D6A354"/>
<path d="M10.8085 4.7574C11.9145 4.94313 12.9191 5.46656 13.7211 6.26857C14.5231 7.07059 15.0423 8.07522 15.2323 9.18116C15.2787 9.45975 15.5193 9.65392 15.7937 9.65392C15.8275 9.65392 15.857 9.6497 15.8908 9.64548C16.2032 9.59483 16.41 9.29935 16.3593 8.98698C16.1314 7.64888 15.4982 6.42897 14.5316 5.46233C13.5649 4.49569 12.345 3.86252 11.0069 3.63458C10.6946 3.58393 10.4033 3.79076 10.3484 4.09891C10.2936 4.40705 10.4962 4.70675 10.8085 4.7574Z" fill="#D6A354"/>
<path d="M19.9767 8.82267C19.6011 6.61923 18.5627 4.61419 16.9671 3.0186C15.3715 1.42301 13.3664 0.384613 11.163 0.00893186C10.8549 -0.0459429 10.5636 0.165114 10.5087 0.473257C10.4581 0.785621 10.6649 1.07688 10.9773 1.13175C12.9443 1.46522 14.7383 2.3981 16.165 3.82062C17.5918 5.24736 18.5204 7.04135 18.8539 9.0084C18.9003 9.28699 19.141 9.48116 19.4153 9.48116C19.4491 9.48116 19.4786 9.47694 19.5124 9.47272C19.8206 9.42629 20.0316 9.13081 19.9767 8.82267Z" fill="#D6A354"/>
</svg>
