<svg width="18" height="24" viewBox="0 0 18 24" fill="none" xmlns="http://www.w3.org/2000/svg">
<path d="M9 4.21875C6.67378 4.21875 4.78125 6.11128 4.78125 8.4375C4.78125 10.7489 6.64298 12.6562 9 12.6562C11.3861 12.6562 13.2188 10.7235 13.2188 8.4375C13.2188 6.11128 11.3262 4.21875 9 4.21875ZM9 11.2594C7.44108 11.2594 6.17813 9.9922 6.17813 8.4375C6.17813 6.88669 7.44919 5.61563 9 5.61563C10.5508 5.61563 11.8172 6.88669 11.8172 8.4375C11.8172 9.96952 10.5836 11.2594 9 11.2594Z" fill="#D6A354"/>
<path d="M9 0C4.34756 0 0.5625 3.78506 0.5625 8.4375C0.5625 10.0094 0.997922 11.5434 1.82198 12.8743L8.51972 23.6676C8.64802 23.8744 8.87405 24 9.11714 24C9.11902 24 9.12084 24 9.12272 24C9.36792 23.9981 9.59442 23.8686 9.72038 23.6582L16.2474 12.7603C17.026 11.4576 17.4375 9.96277 17.4375 8.4375C17.4375 3.78506 13.6524 0 9 0ZM15.0406 12.0383L9.1065 21.9462L3.0172 12.1334C2.33128 11.0257 1.95938 9.74766 1.95938 8.4375C1.95938 4.56047 5.12297 1.39687 9 1.39687C12.877 1.39687 16.0359 4.56047 16.0359 8.4375C16.0359 9.7088 15.6885 10.9541 15.0406 12.0383Z" fill="#D6A354"/>
</svg>
